<?xml version="1.0" encoding="UTF-8"?>
<svg width="64px" height="65px" viewBox="0 0 64 65" version="1.1" xmlns="http://www.w3.org/2000/svg" xmlns:xlink="http://www.w3.org/1999/xlink">
    <!-- Generator: sketchtool 55.2 (78181) - https://sketchapp.com -->
    <title>EDAFC4FB-E6D3-435C-AC81-31D2D657554C</title>
    <desc>Created with sketchtool.</desc>
    <g id="Page-1" stroke="none" stroke-width="1" fill="none" fill-rule="evenodd">
        <g id="Locked-feature" transform="translate(-87.000000, -88.000000)">
            <g id="sw-pro-wide" transform="translate(87.000000, 88.000000)">
                <g id="assets/logo/purple">
                    <path d="M24.3049753,39.1638586 L31.9926914,35.0089094 L-4.53900694e-05,17.7168761 L-4.53900694e-05,34.7934708 C2.3974581,33.5836998 5.41816725,32.953956 8.87689057,32.953956 C16.4075571,32.953956 21.1735144,35.948001 24.3049753,39.1638586" id="Fill-1" fill="#DEC9F1"></path>
                    <path d="M10.1897078,62.998854 C13.3942468,62.998854 15.8103602,62.1141532 15.8103602,59.8518347 C15.8103602,57.5406495 12.7111262,56.6555238 8.87657302,55.770398 C6.02199147,55.0858385 2.74573616,54.3991543 9.07801388e-05,53.1039727 L9.07801388e-05,57.4913578 C2.31135318,60.9829939 6.14590636,62.998854 10.1897078,62.998854" id="Fill-4" fill="#DEC9F1"></path>
                    <polygon id="Fill-6" fill="#8F4ED3" points="63.9853849 52.3005605 63.9853849 17.7169189 31.992648 35.0089522"></polygon>
                    <polygon id="Fill-9" fill="#D0B3EB" points="63.9849279 17.7170041 31.9926455 0.42497083 -9.07801388e-05 17.7170041 31.9926455 35.0086124"></polygon>
                    <path d="M31.9924647,35.0083579 L24.3047485,39.163732 L16.0641813,43.6182556 C13.958536,42.050695 11.2805218,40.9199607 8.82446515,40.9199607 C5.83008223,40.9199607 4.30679148,41.8535282 4.30679148,43.5753378 C4.30679148,45.5669768 6.3906496,46.5162667 9.27791195,47.2858119 C9.88386939,47.4472847 10.5229616,47.6015336 11.1879261,47.7549328 C17.5438976,49.1809922 26.053174,51.0005353 26.053174,59.1629834 C26.053174,60.8767193 25.6678124,62.5845062 24.823557,64.1427184 L63.9847478,64.1427184 L63.9847478,52.300391 L31.9924647,35.0083579 Z" id="Fill-12" fill="#4A276D"></path>
                    <path d="M11.187926,47.7549748 C10.5229615,47.6015757 9.88386931,47.4473267 9.27791187,47.285854 C6.39064952,46.5163088 4.3067914,45.567019 4.3067914,43.57538 C4.3067914,41.8535705 5.83008215,40.920003 8.82446507,40.920003 C11.2805218,40.920003 13.9585359,42.0507372 16.0641812,43.6182977 L24.3047485,39.1637743 C21.1728336,35.9479168 16.4073302,32.9534471 8.87666365,32.9534471 C5.41748642,32.9534471 2.39768506,33.5831908 0.000181560278,34.7933866 L0.000181560278,52.3004329 L0.000181560278,53.1039723 C2.74537299,54.3991538 6.02208215,55.085413 8.87666365,55.7699726 C12.7107629,56.6555231 15.8104507,57.5402239 15.8104507,59.8518339 C15.8104507,62.1141522 13.3938834,62.9988529 10.1897984,62.9988529 C6.14554314,62.9988529 2.31099002,60.982993 0.000181560278,57.4913571 L0.000181560278,64.1427599 L24.823557,64.1427599 C25.6678123,62.5845478 26.0531739,60.876761 26.0531739,59.1630251 C26.0531739,51.0005772 17.5438975,49.1806093 11.187926,47.7549748" id="Fill-14" fill="#FFFFFF"></path>
                </g>
            </g>
        </g>
    </g>
</svg>